<mxfile host="app.diagrams.net" modified="2024-04-02T21:49:01.008Z" agent="Mozilla/5.0 (Windows NT 10.0; Win64; x64) AppleWebKit/537.36 (KHTML, like Gecko) Chrome/123.0.0.0 Safari/537.36" etag="2EPn_DBOIz8bR1Hd_ezU" version="24.2.1" type="device">
  <diagram name="Page-1" id="VZ4MXNeJ8K9JZ3hiHo4b">
    <mxGraphModel dx="625" dy="1661" grid="1" gridSize="10" guides="1" tooltips="1" connect="1" arrows="1" fold="1" page="1" pageScale="1" pageWidth="850" pageHeight="1100" math="0" shadow="0">
      <root>
        <mxCell id="0" />
        <mxCell id="1" parent="0" />
        <mxCell id="pnZ1Sr0ycIp7z9L5gYy--4" style="edgeStyle=orthogonalEdgeStyle;rounded=0;orthogonalLoop=1;jettySize=auto;html=1;" edge="1" parent="1" source="pnZ1Sr0ycIp7z9L5gYy--1" target="pnZ1Sr0ycIp7z9L5gYy--3">
          <mxGeometry relative="1" as="geometry" />
        </mxCell>
        <mxCell id="pnZ1Sr0ycIp7z9L5gYy--7" style="edgeStyle=orthogonalEdgeStyle;rounded=0;orthogonalLoop=1;jettySize=auto;html=1;entryX=0.5;entryY=0;entryDx=0;entryDy=0;" edge="1" parent="1" source="pnZ1Sr0ycIp7z9L5gYy--1" target="pnZ1Sr0ycIp7z9L5gYy--6">
          <mxGeometry relative="1" as="geometry" />
        </mxCell>
        <mxCell id="pnZ1Sr0ycIp7z9L5gYy--1" value="" style="whiteSpace=wrap;html=1;aspect=fixed;" vertex="1" parent="1">
          <mxGeometry x="220" y="370" width="80" height="80" as="geometry" />
        </mxCell>
        <mxCell id="pnZ1Sr0ycIp7z9L5gYy--28" style="edgeStyle=orthogonalEdgeStyle;rounded=0;orthogonalLoop=1;jettySize=auto;html=1;" edge="1" parent="1" source="pnZ1Sr0ycIp7z9L5gYy--29" target="pnZ1Sr0ycIp7z9L5gYy--13">
          <mxGeometry relative="1" as="geometry" />
        </mxCell>
        <mxCell id="pnZ1Sr0ycIp7z9L5gYy--2" value="Task" style="text;html=1;align=center;verticalAlign=middle;whiteSpace=wrap;rounded=0;" vertex="1" parent="1">
          <mxGeometry x="230" y="395" width="60" height="30" as="geometry" />
        </mxCell>
        <mxCell id="pnZ1Sr0ycIp7z9L5gYy--11" value="" style="edgeStyle=orthogonalEdgeStyle;rounded=0;orthogonalLoop=1;jettySize=auto;html=1;" edge="1" parent="1" source="pnZ1Sr0ycIp7z9L5gYy--3" target="pnZ1Sr0ycIp7z9L5gYy--10">
          <mxGeometry relative="1" as="geometry" />
        </mxCell>
        <mxCell id="pnZ1Sr0ycIp7z9L5gYy--3" value="" style="whiteSpace=wrap;html=1;aspect=fixed;" vertex="1" parent="1">
          <mxGeometry x="140" y="520" width="80" height="80" as="geometry" />
        </mxCell>
        <mxCell id="pnZ1Sr0ycIp7z9L5gYy--5" value="Workout" style="text;html=1;align=center;verticalAlign=middle;whiteSpace=wrap;rounded=0;" vertex="1" parent="1">
          <mxGeometry x="150" y="545" width="60" height="30" as="geometry" />
        </mxCell>
        <mxCell id="pnZ1Sr0ycIp7z9L5gYy--6" value="" style="whiteSpace=wrap;html=1;aspect=fixed;" vertex="1" parent="1">
          <mxGeometry x="300" y="520" width="80" height="80" as="geometry" />
        </mxCell>
        <mxCell id="pnZ1Sr0ycIp7z9L5gYy--8" value="Drill" style="text;html=1;align=center;verticalAlign=middle;whiteSpace=wrap;rounded=0;" vertex="1" parent="1">
          <mxGeometry x="310" y="545" width="60" height="30" as="geometry" />
        </mxCell>
        <mxCell id="pnZ1Sr0ycIp7z9L5gYy--10" value="" style="whiteSpace=wrap;html=1;aspect=fixed;" vertex="1" parent="1">
          <mxGeometry x="140" y="650" width="80" height="80" as="geometry" />
        </mxCell>
        <mxCell id="pnZ1Sr0ycIp7z9L5gYy--12" value="Excersice" style="text;html=1;align=center;verticalAlign=middle;whiteSpace=wrap;rounded=0;" vertex="1" parent="1">
          <mxGeometry x="150" y="675" width="60" height="30" as="geometry" />
        </mxCell>
        <mxCell id="pnZ1Sr0ycIp7z9L5gYy--16" value="" style="edgeStyle=orthogonalEdgeStyle;rounded=0;orthogonalLoop=1;jettySize=auto;html=1;" edge="1" parent="1" source="pnZ1Sr0ycIp7z9L5gYy--13" target="pnZ1Sr0ycIp7z9L5gYy--15">
          <mxGeometry relative="1" as="geometry" />
        </mxCell>
        <mxCell id="pnZ1Sr0ycIp7z9L5gYy--19" style="edgeStyle=orthogonalEdgeStyle;rounded=0;orthogonalLoop=1;jettySize=auto;html=1;entryX=0.5;entryY=0;entryDx=0;entryDy=0;" edge="1" parent="1" source="pnZ1Sr0ycIp7z9L5gYy--13" target="pnZ1Sr0ycIp7z9L5gYy--18">
          <mxGeometry relative="1" as="geometry" />
        </mxCell>
        <mxCell id="pnZ1Sr0ycIp7z9L5gYy--13" value="" style="whiteSpace=wrap;html=1;aspect=fixed;" vertex="1" parent="1">
          <mxGeometry x="220" y="20" width="80" height="80" as="geometry" />
        </mxCell>
        <mxCell id="pnZ1Sr0ycIp7z9L5gYy--14" value="Team" style="text;html=1;align=center;verticalAlign=middle;whiteSpace=wrap;rounded=0;" vertex="1" parent="1">
          <mxGeometry x="230" y="45" width="60" height="30" as="geometry" />
        </mxCell>
        <mxCell id="pnZ1Sr0ycIp7z9L5gYy--15" value="" style="whiteSpace=wrap;html=1;aspect=fixed;" vertex="1" parent="1">
          <mxGeometry x="60" y="180" width="80" height="80" as="geometry" />
        </mxCell>
        <mxCell id="pnZ1Sr0ycIp7z9L5gYy--17" value="Players" style="text;html=1;align=center;verticalAlign=middle;whiteSpace=wrap;rounded=0;" vertex="1" parent="1">
          <mxGeometry x="70" y="205" width="60" height="30" as="geometry" />
        </mxCell>
        <mxCell id="pnZ1Sr0ycIp7z9L5gYy--22" style="edgeStyle=orthogonalEdgeStyle;rounded=0;orthogonalLoop=1;jettySize=auto;html=1;entryX=0.5;entryY=0;entryDx=0;entryDy=0;" edge="1" parent="1" source="pnZ1Sr0ycIp7z9L5gYy--24" target="pnZ1Sr0ycIp7z9L5gYy--1">
          <mxGeometry relative="1" as="geometry" />
        </mxCell>
        <mxCell id="pnZ1Sr0ycIp7z9L5gYy--35" style="edgeStyle=orthogonalEdgeStyle;rounded=0;orthogonalLoop=1;jettySize=auto;html=1;entryX=0.5;entryY=0;entryDx=0;entryDy=0;" edge="1" parent="1" source="pnZ1Sr0ycIp7z9L5gYy--38" target="pnZ1Sr0ycIp7z9L5gYy--31">
          <mxGeometry relative="1" as="geometry" />
        </mxCell>
        <mxCell id="pnZ1Sr0ycIp7z9L5gYy--18" value="" style="whiteSpace=wrap;html=1;aspect=fixed;" vertex="1" parent="1">
          <mxGeometry x="395" y="215" width="80" height="80" as="geometry" />
        </mxCell>
        <mxCell id="pnZ1Sr0ycIp7z9L5gYy--20" value="Coach" style="text;html=1;align=center;verticalAlign=middle;whiteSpace=wrap;rounded=0;" vertex="1" parent="1">
          <mxGeometry x="405" y="240" width="60" height="30" as="geometry" />
        </mxCell>
        <mxCell id="pnZ1Sr0ycIp7z9L5gYy--23" value="" style="edgeStyle=orthogonalEdgeStyle;rounded=0;orthogonalLoop=1;jettySize=auto;html=1;entryX=0.5;entryY=0;entryDx=0;entryDy=0;" edge="1" parent="1" source="pnZ1Sr0ycIp7z9L5gYy--18" target="pnZ1Sr0ycIp7z9L5gYy--24">
          <mxGeometry relative="1" as="geometry">
            <mxPoint x="320" y="250" as="sourcePoint" />
            <mxPoint x="260" y="370" as="targetPoint" />
          </mxGeometry>
        </mxCell>
        <mxCell id="pnZ1Sr0ycIp7z9L5gYy--24" value="Creates" style="text;html=1;align=center;verticalAlign=middle;whiteSpace=wrap;rounded=0;" vertex="1" parent="1">
          <mxGeometry x="260" y="295" width="60" height="30" as="geometry" />
        </mxCell>
        <mxCell id="pnZ1Sr0ycIp7z9L5gYy--25" style="edgeStyle=orthogonalEdgeStyle;rounded=0;orthogonalLoop=1;jettySize=auto;html=1;entryX=0.435;entryY=1.051;entryDx=0;entryDy=0;entryPerimeter=0;" edge="1" parent="1" source="pnZ1Sr0ycIp7z9L5gYy--26" target="pnZ1Sr0ycIp7z9L5gYy--15">
          <mxGeometry relative="1" as="geometry" />
        </mxCell>
        <mxCell id="pnZ1Sr0ycIp7z9L5gYy--27" value="" style="edgeStyle=orthogonalEdgeStyle;rounded=0;orthogonalLoop=1;jettySize=auto;html=1;entryX=0.435;entryY=1.051;entryDx=0;entryDy=0;entryPerimeter=0;" edge="1" parent="1" source="pnZ1Sr0ycIp7z9L5gYy--2" target="pnZ1Sr0ycIp7z9L5gYy--26">
          <mxGeometry relative="1" as="geometry">
            <mxPoint x="260" y="395" as="sourcePoint" />
            <mxPoint x="195" y="254" as="targetPoint" />
          </mxGeometry>
        </mxCell>
        <mxCell id="pnZ1Sr0ycIp7z9L5gYy--26" value="Assignted to" style="text;html=1;align=center;verticalAlign=middle;whiteSpace=wrap;rounded=0;" vertex="1" parent="1">
          <mxGeometry x="170" y="310" width="60" height="30" as="geometry" />
        </mxCell>
        <mxCell id="pnZ1Sr0ycIp7z9L5gYy--30" value="" style="edgeStyle=orthogonalEdgeStyle;rounded=0;orthogonalLoop=1;jettySize=auto;html=1;" edge="1" parent="1" source="pnZ1Sr0ycIp7z9L5gYy--2" target="pnZ1Sr0ycIp7z9L5gYy--29">
          <mxGeometry relative="1" as="geometry">
            <mxPoint x="260" y="395" as="sourcePoint" />
            <mxPoint x="260" y="100" as="targetPoint" />
          </mxGeometry>
        </mxCell>
        <mxCell id="pnZ1Sr0ycIp7z9L5gYy--29" value="Saved to team" style="text;html=1;align=center;verticalAlign=middle;whiteSpace=wrap;rounded=0;" vertex="1" parent="1">
          <mxGeometry x="230" y="210" width="60" height="30" as="geometry" />
        </mxCell>
        <mxCell id="pnZ1Sr0ycIp7z9L5gYy--32" style="edgeStyle=orthogonalEdgeStyle;rounded=0;orthogonalLoop=1;jettySize=auto;html=1;entryX=1;entryY=0.5;entryDx=0;entryDy=0;" edge="1" parent="1" source="pnZ1Sr0ycIp7z9L5gYy--34" target="pnZ1Sr0ycIp7z9L5gYy--1">
          <mxGeometry relative="1" as="geometry" />
        </mxCell>
        <mxCell id="pnZ1Sr0ycIp7z9L5gYy--40" style="edgeStyle=orthogonalEdgeStyle;rounded=0;orthogonalLoop=1;jettySize=auto;html=1;entryX=1;entryY=0.25;entryDx=0;entryDy=0;" edge="1" parent="1" source="pnZ1Sr0ycIp7z9L5gYy--42" target="pnZ1Sr0ycIp7z9L5gYy--13">
          <mxGeometry relative="1" as="geometry">
            <mxPoint x="610" y="40" as="targetPoint" />
            <Array as="points" />
          </mxGeometry>
        </mxCell>
        <mxCell id="pnZ1Sr0ycIp7z9L5gYy--31" value="Program" style="whiteSpace=wrap;html=1;aspect=fixed;" vertex="1" parent="1">
          <mxGeometry x="490" y="370" width="80" height="80" as="geometry" />
        </mxCell>
        <mxCell id="pnZ1Sr0ycIp7z9L5gYy--33" value="" style="edgeStyle=orthogonalEdgeStyle;rounded=0;orthogonalLoop=1;jettySize=auto;html=1;entryX=1;entryY=0.5;entryDx=0;entryDy=0;" edge="1" parent="1" source="pnZ1Sr0ycIp7z9L5gYy--31" target="pnZ1Sr0ycIp7z9L5gYy--34">
          <mxGeometry relative="1" as="geometry">
            <mxPoint x="490" y="410" as="sourcePoint" />
            <mxPoint x="300" y="410" as="targetPoint" />
          </mxGeometry>
        </mxCell>
        <mxCell id="pnZ1Sr0ycIp7z9L5gYy--34" value="Consists of Tasks" style="text;html=1;align=center;verticalAlign=middle;whiteSpace=wrap;rounded=0;" vertex="1" parent="1">
          <mxGeometry x="360" y="395" width="60" height="30" as="geometry" />
        </mxCell>
        <mxCell id="pnZ1Sr0ycIp7z9L5gYy--37" value="" style="edgeStyle=orthogonalEdgeStyle;rounded=0;orthogonalLoop=1;jettySize=auto;html=1;entryX=0.5;entryY=0;entryDx=0;entryDy=0;" edge="1" parent="1" source="pnZ1Sr0ycIp7z9L5gYy--18" target="pnZ1Sr0ycIp7z9L5gYy--38">
          <mxGeometry relative="1" as="geometry">
            <mxPoint x="475" y="255" as="sourcePoint" />
            <mxPoint x="530" y="370" as="targetPoint" />
          </mxGeometry>
        </mxCell>
        <mxCell id="pnZ1Sr0ycIp7z9L5gYy--38" value="Creates" style="text;html=1;align=center;verticalAlign=middle;whiteSpace=wrap;rounded=0;" vertex="1" parent="1">
          <mxGeometry x="500" y="280" width="60" height="30" as="geometry" />
        </mxCell>
        <mxCell id="pnZ1Sr0ycIp7z9L5gYy--41" value="" style="edgeStyle=orthogonalEdgeStyle;rounded=0;orthogonalLoop=1;jettySize=auto;html=1;entryX=1;entryY=0.25;entryDx=0;entryDy=0;" edge="1" parent="1" source="pnZ1Sr0ycIp7z9L5gYy--31" target="pnZ1Sr0ycIp7z9L5gYy--42">
          <mxGeometry relative="1" as="geometry">
            <mxPoint x="300" y="40" as="targetPoint" />
            <mxPoint x="570" y="410" as="sourcePoint" />
            <Array as="points">
              <mxPoint x="620" y="410" />
              <mxPoint x="620" y="40" />
            </Array>
          </mxGeometry>
        </mxCell>
        <mxCell id="pnZ1Sr0ycIp7z9L5gYy--42" value="Assigned to team" style="text;html=1;align=center;verticalAlign=middle;whiteSpace=wrap;rounded=0;" vertex="1" parent="1">
          <mxGeometry x="475" y="15" width="60" height="30" as="geometry" />
        </mxCell>
      </root>
    </mxGraphModel>
  </diagram>
</mxfile>
